<!-- Wordmark outlined from Chivo at weight 800 with the brand's -0.022em
     tracking baked in. No font is required to render this file.
     Regenerate with: python brand/build-wordmark.py -->
<svg xmlns="http://www.w3.org/2000/svg" viewBox="0 0 5763.0 738.0" width="5763.0" height="738.0" role="img" aria-label="OffTheBlock">
  <title>OffTheBlock</title>
  <g transform="translate(-38.000 728.000) scale(1.000000)"><path fill="#F0EEE9" d="M333.0 10Q272.0 10 218.5 -12.5Q165.0 -35 124.5 -75.5Q84.0 -116 61.0 -172.0Q38.0 -228 38.0 -296V-389Q38.0 -457 61.0 -513.0Q84.0 -569 124.5 -609.5Q165.0 -650 218.5 -672.0Q272.0 -694 333.0 -694H381.0Q443.0 -694 496.5 -672.0Q550.0 -650 590.5 -609.5Q631.0 -569 654.0 -513.0Q677.0 -457 677.0 -389V-296Q677.0 -228 653.5 -172.0Q630.0 -116 589.5 -75.5Q549.0 -35 495.5 -12.5Q442.0 10 382.0 10ZM357.0 -131Q383.0 -131 404.5 -139.5Q426.0 -148 442.0 -164.0Q458.0 -180 466.5 -203.0Q475.0 -226 475.0 -256V-428Q475.0 -458 466.5 -481.5Q458.0 -505 442.0 -521.0Q426.0 -537 404.5 -545.0Q383.0 -553 357.0 -553Q332.0 -553 310.5 -544.5Q289.0 -536 273.0 -520.5Q257.0 -505 248.0 -482.0Q239.0 -459 239.0 -429V-256Q239.0 -226 248.0 -203.0Q257.0 -180 273.0 -163.5Q289.0 -147 310.5 -139.0Q332.0 -131 357.0 -131ZM784.0 0V-382H722.0V-511H784.0V-583Q784.0 -660 832.0 -694.0Q880.0 -728 956.0 -728Q973.0 -728 996.0 -725.5Q1019.0 -723 1042.5 -718.5Q1066.0 -714 1081.0 -707V-606Q1070.0 -610 1050.0 -613.5Q1030.0 -617 1019.0 -617Q1007.0 -617 993.5 -613.5Q980.0 -610 971.0 -598.0Q962.0 -586 962.0 -557V-511H1169.0V-583Q1169.0 -660 1217.0 -694.0Q1265.0 -728 1341.0 -728Q1358.0 -728 1381.0 -725.5Q1404.0 -723 1427.5 -718.5Q1451.0 -714 1466.0 -707V-606Q1455.0 -610 1435.0 -613.5Q1415.0 -617 1404.0 -617Q1392.0 -617 1378.5 -613.5Q1365.0 -610 1356.0 -598.0Q1347.0 -586 1347.0 -557V-511H1467.0V-382H1347.0V0H1169.0V-382H962.0V0ZM1661.0 0V-538H1480.0V-686H2031.0V-538H1850.0V0ZM2082.0 0V-720H2260.0V-449Q2288.0 -484 2323.5 -502.5Q2359.0 -521 2407.0 -521Q2457.0 -521 2493.5 -501.0Q2530.0 -481 2550.0 -446.0Q2570.0 -411 2570.0 -365V0H2393.0V-322Q2393.0 -355 2374.5 -374.0Q2356.0 -393 2328.0 -393Q2310.0 -393 2294.0 -383.5Q2278.0 -374 2269.0 -357.0Q2260.0 -340 2260.0 -319V0ZM2899.0 10Q2823.0 10 2763.0 -19.0Q2703.0 -48 2669.0 -104.5Q2635.0 -161 2635.0 -241V-270Q2635.0 -350 2669.0 -406.5Q2703.0 -463 2763.5 -492.0Q2824.0 -521 2900.0 -521H2922.0Q2998.0 -521 3051.5 -492.0Q3105.0 -463 3133.5 -412.0Q3162.0 -361 3162.0 -294V-232H2824.0Q2824.0 -195 2832.0 -165.0Q2840.0 -135 2858.0 -118.0Q2876.0 -101 2909.0 -101Q2937.0 -101 2956.5 -111.5Q2976.0 -122 2986.5 -143.0Q2997.0 -164 2997.0 -192H3161.0Q3161.0 -135 3130.5 -89.0Q3100.0 -43 3044.5 -16.5Q2989.0 10 2913.0 10ZM2825.0 -313H2987.0Q2987.0 -364 2965.0 -387.5Q2943.0 -411 2907.0 -411Q2871.0 -411 2848.0 -386.0Q2825.0 -361 2825.0 -313ZM3238.0 0V-686H3595.0Q3646.0 -686 3688.5 -667.5Q3731.0 -649 3755.5 -613.0Q3780.0 -577 3780.0 -526Q3780.0 -477 3763.5 -443.5Q3747.0 -410 3720.5 -389.5Q3694.0 -369 3664.0 -358V-354Q3687.0 -349 3710.5 -337.5Q3734.0 -326 3753.5 -307.0Q3773.0 -288 3784.5 -261.0Q3796.0 -234 3796.0 -198Q3796.0 -139 3768.0 -94.5Q3740.0 -50 3694.0 -25.0Q3648.0 0 3594.0 0ZM3413.0 -139H3542.0Q3564.0 -139 3580.0 -148.5Q3596.0 -158 3605.0 -176.0Q3614.0 -194 3614.0 -218Q3614.0 -240 3604.0 -254.5Q3594.0 -269 3578.5 -276.0Q3563.0 -283 3544.0 -283H3413.0ZM3413.0 -416H3539.0Q3561.0 -416 3575.0 -426.5Q3589.0 -437 3595.0 -454.0Q3601.0 -471 3601.0 -490Q3601.0 -524 3584.5 -538.5Q3568.0 -553 3542.0 -553H3413.0ZM3863.0 0V-720H4041.0V0ZM4367.0 10Q4293.0 10 4234.5 -22.0Q4176.0 -54 4142.5 -112.0Q4109.0 -170 4109.0 -246V-266Q4109.0 -343 4142.5 -400.0Q4176.0 -457 4234.0 -489.0Q4292.0 -521 4366.0 -521H4394.0Q4469.0 -521 4527.0 -489.0Q4585.0 -457 4618.5 -400.0Q4652.0 -343 4652.0 -266V-246Q4652.0 -169 4618.5 -111.5Q4585.0 -54 4527.0 -22.0Q4469.0 10 4395.0 10ZM4380.0 -101Q4404.0 -101 4422.5 -112.0Q4441.0 -123 4452.0 -143.5Q4463.0 -164 4463.0 -190V-322Q4463.0 -349 4452.0 -368.5Q4441.0 -388 4422.5 -399.5Q4404.0 -411 4380.0 -411Q4358.0 -411 4339.0 -399.5Q4320.0 -388 4309.0 -368.5Q4298.0 -349 4298.0 -322V-190Q4298.0 -164 4309.0 -143.5Q4320.0 -123 4339.0 -112.0Q4358.0 -101 4380.0 -101ZM4939.0 10Q4873.0 10 4817.5 -22.5Q4762.0 -55 4729.0 -111.5Q4696.0 -168 4696.0 -237V-274Q4696.0 -327 4715.5 -371.5Q4735.0 -416 4769.0 -450.0Q4803.0 -484 4847.5 -502.5Q4892.0 -521 4942.0 -521H4969.0Q5042.0 -521 5093.5 -493.0Q5145.0 -465 5172.5 -416.5Q5200.0 -368 5200.0 -306H5047.0Q5047.0 -341 5038.5 -364.0Q5030.0 -387 5012.0 -399.0Q4994.0 -411 4967.0 -411Q4932.0 -411 4908.5 -386.5Q4885.0 -362 4885.0 -323V-189Q4885.0 -150 4906.0 -125.5Q4927.0 -101 4969.0 -101Q5000.0 -101 5019.5 -110.5Q5039.0 -120 5048.0 -143.0Q5057.0 -166 5057.0 -206H5200.0Q5200.0 -137 5170.0 -89.0Q5140.0 -41 5087.0 -15.5Q5034.0 10 4965.0 10ZM5263.0 0V-720H5441.0V-302L5593.0 -511H5796.0L5612.0 -279L5801.0 0H5591.0L5486.0 -158L5441.0 -116V0Z"/></g>
</svg>
