<!-- Drawn from brand/build-art.py in the mark's own geometry.
     Do not hand-edit. -->
<svg xmlns="http://www.w3.org/2000/svg" viewBox="0 0 1280 800" width="1280" height="800" role="img" aria-label="OffTheBlockBot: a stream of messages, and the one worth having">
  <title>OffTheBlockBot: a stream of messages, and the one worth having</title>
  <rect width="1280" height="800" fill="#0B0C0F"/>
  <rect x="180" y="130" width="384" height="26" rx="3" fill="#1e222a" opacity="0.3"/>
  <rect x="140.00" y="129.00" width="28.00" height="28.00" fill="#1e222a" opacity="0.42"/>
  <rect x="180" y="198" width="260" height="26" rx="3" fill="#1e222a" opacity="0.55"/>
  <rect x="140.00" y="197.00" width="28.00" height="28.00" fill="#1e222a" opacity="0.67"/>
  <rect x="180" y="266" width="484" height="26" rx="3" fill="#1e222a" opacity="0.3"/>
  <rect x="140.00" y="265.00" width="28.00" height="28.00" fill="#1e222a" opacity="0.42"/>
  <rect x="180" y="334" width="211" height="26" rx="3" fill="#1e222a" opacity="0.62"/>
  <rect x="140.00" y="333.00" width="28.00" height="28.00" fill="#1e222a" opacity="0.74"/>
  <rect x="180" y="402" width="341" height="26" rx="3" fill="#1e222a" opacity="0.3"/>
  <rect x="140.00" y="401.00" width="28.00" height="28.00" fill="#1e222a" opacity="0.42"/>
  <rect x="180" y="470" width="434" height="26" rx="3" fill="#1e222a" opacity="0.45"/>
  <rect x="140.00" y="469.00" width="28.00" height="28.00" fill="#1e222a" opacity="0.57"/>
  <rect x="180" y="538" width="236" height="26" rx="3" fill="#1e222a" opacity="0.3"/>
  <rect x="140.00" y="537.00" width="28.00" height="28.00" fill="#1e222a" opacity="0.42"/>
  <rect x="180" y="606" width="372" height="26" rx="3" fill="#1e222a" opacity="0.52"/>
  <rect x="140.00" y="605.00" width="28.00" height="28.00" fill="#1e222a" opacity="0.64"/>
  <path d="M840,352 C900,352 900,300 906,300" fill="none" stroke="#FF5C8D" stroke-width="2" opacity="0.4" stroke-dasharray="6 6"/>
  <rect x="900" y="266" width="300" height="120" rx="6" fill="#171a21" stroke="#2a2f38" stroke-width="1.5"/>
  <rect x="926" y="296" width="190" height="14" rx="2" fill="#F0EEE9" opacity="0.75"/>
  <rect x="926" y="322" width="130" height="14" rx="2" fill="#5E6673" opacity="0.7"/>
  <path d="M1180.33,233.27 L1232.73,246.33 L1219.67,298.73 L1167.27,285.67 Z" fill="#FF5C8D"/>
</svg>
