<!-- Drawn from brand/build-og.py. Do not hand-edit. -->
<svg xmlns="http://www.w3.org/2000/svg" viewBox="0 0 1200 630" width="1200" height="630">
  <rect width="1200" height="630" fill="#0B0C0F"/>
  <rect x="722" y="104" width="58" height="58" rx="2" fill="#171a21" opacity="0.20"/>
  <rect x="810" y="104" width="58" height="58" rx="2" fill="#171a21" opacity="0.30"/>
  <rect x="898" y="104" width="58" height="58" rx="2" fill="#1e222a" opacity="0.41"/>
  <rect x="986" y="104" width="58" height="58" rx="2" fill="#1e222a" opacity="0.52"/>
  <rect x="1074" y="104" width="58" height="58" rx="2" fill="#1e222a" opacity="0.62"/>
  <rect x="722" y="192" width="58" height="58" rx="2" fill="#171a21" opacity="0.20"/>
  <rect x="810" y="192" width="58" height="58" rx="2" fill="#171a21" opacity="0.30"/>
  <rect x="898" y="192" width="58" height="58" rx="2" fill="#1e222a" opacity="0.41"/>
  <rect x="986" y="192" width="58" height="58" rx="2" fill="#1e222a" opacity="0.52"/>
  <rect x="1074" y="192" width="58" height="58" rx="2" fill="#1e222a" opacity="0.62"/>
  <rect x="722" y="280" width="58" height="58" rx="2" fill="#171a21" opacity="0.20"/>
  <rect x="810" y="280" width="58" height="58" rx="2" fill="#171a21" opacity="0.30"/>
  <rect x="986" y="280" width="58" height="58" rx="2" fill="#1e222a" opacity="0.52"/>
  <rect x="1074" y="280" width="58" height="58" rx="2" fill="#1e222a" opacity="0.62"/>
  <rect x="722" y="368" width="58" height="58" rx="2" fill="#171a21" opacity="0.20"/>
  <rect x="810" y="368" width="58" height="58" rx="2" fill="#171a21" opacity="0.30"/>
  <rect x="898" y="368" width="58" height="58" rx="2" fill="#1e222a" opacity="0.41"/>
  <rect x="986" y="368" width="58" height="58" rx="2" fill="#1e222a" opacity="0.52"/>
  <rect x="1074" y="368" width="58" height="58" rx="2" fill="#1e222a" opacity="0.62"/>
  <rect x="722" y="456" width="58" height="58" rx="2" fill="#171a21" opacity="0.20"/>
  <rect x="810" y="456" width="58" height="58" rx="2" fill="#171a21" opacity="0.30"/>
  <rect x="898" y="456" width="58" height="58" rx="2" fill="#1e222a" opacity="0.41"/>
  <rect x="986" y="456" width="58" height="58" rx="2" fill="#1e222a" opacity="0.52"/>
  <rect x="1074" y="456" width="58" height="58" rx="2" fill="#1e222a" opacity="0.62"/>
  <rect x="898.75" y="280.75" width="56.5" height="56.5" rx="2" fill="none" stroke="#FF5C8D" stroke-width="1.5" opacity="0.34"/>
  <path d="M974.79,216.69 L1023.31,228.79 L1011.21,277.31 L962.69,265.21 Z" fill="#FF5C8D"/>
  <svg x="88" y="214.0" width="520" height="111.0" viewBox="0 0 424.3 90.6">
  
  <g transform="translate(55.963 34.037) scale(1.554525)"><path d="M-36,0 L-16,0 L-16,16 L0,16 L0,36 L-36,36 Z" fill="#F0EEE9"/><path d="M6.3708,-21.8955 L21.8955,-18.0247 L18.0247,-2.5000 L2.5000,-6.3708 Z" fill="#FF5C8D"/></g>
  <g transform="translate(73.666 90.000) scale(0.060440)"><path fill="#F0EEE9" d="M333.0 10Q272.0 10 218.5 -12.5Q165.0 -35 124.5 -75.5Q84.0 -116 61.0 -172.0Q38.0 -228 38.0 -296V-389Q38.0 -457 61.0 -513.0Q84.0 -569 124.5 -609.5Q165.0 -650 218.5 -672.0Q272.0 -694 333.0 -694H381.0Q443.0 -694 496.5 -672.0Q550.0 -650 590.5 -609.5Q631.0 -569 654.0 -513.0Q677.0 -457 677.0 -389V-296Q677.0 -228 653.5 -172.0Q630.0 -116 589.5 -75.5Q549.0 -35 495.5 -12.5Q442.0 10 382.0 10ZM357.0 -131Q383.0 -131 404.5 -139.5Q426.0 -148 442.0 -164.0Q458.0 -180 466.5 -203.0Q475.0 -226 475.0 -256V-428Q475.0 -458 466.5 -481.5Q458.0 -505 442.0 -521.0Q426.0 -537 404.5 -545.0Q383.0 -553 357.0 -553Q332.0 -553 310.5 -544.5Q289.0 -536 273.0 -520.5Q257.0 -505 248.0 -482.0Q239.0 -459 239.0 -429V-256Q239.0 -226 248.0 -203.0Q257.0 -180 273.0 -163.5Q289.0 -147 310.5 -139.0Q332.0 -131 357.0 -131ZM784.0 0V-382H722.0V-511H784.0V-583Q784.0 -660 832.0 -694.0Q880.0 -728 956.0 -728Q973.0 -728 996.0 -725.5Q1019.0 -723 1042.5 -718.5Q1066.0 -714 1081.0 -707V-606Q1070.0 -610 1050.0 -613.5Q1030.0 -617 1019.0 -617Q1007.0 -617 993.5 -613.5Q980.0 -610 971.0 -598.0Q962.0 -586 962.0 -557V-511H1169.0V-583Q1169.0 -660 1217.0 -694.0Q1265.0 -728 1341.0 -728Q1358.0 -728 1381.0 -725.5Q1404.0 -723 1427.5 -718.5Q1451.0 -714 1466.0 -707V-606Q1455.0 -610 1435.0 -613.5Q1415.0 -617 1404.0 -617Q1392.0 -617 1378.5 -613.5Q1365.0 -610 1356.0 -598.0Q1347.0 -586 1347.0 -557V-511H1467.0V-382H1347.0V0H1169.0V-382H962.0V0ZM1661.0 0V-538H1480.0V-686H2031.0V-538H1850.0V0ZM2082.0 0V-720H2260.0V-449Q2288.0 -484 2323.5 -502.5Q2359.0 -521 2407.0 -521Q2457.0 -521 2493.5 -501.0Q2530.0 -481 2550.0 -446.0Q2570.0 -411 2570.0 -365V0H2393.0V-322Q2393.0 -355 2374.5 -374.0Q2356.0 -393 2328.0 -393Q2310.0 -393 2294.0 -383.5Q2278.0 -374 2269.0 -357.0Q2260.0 -340 2260.0 -319V0ZM2899.0 10Q2823.0 10 2763.0 -19.0Q2703.0 -48 2669.0 -104.5Q2635.0 -161 2635.0 -241V-270Q2635.0 -350 2669.0 -406.5Q2703.0 -463 2763.5 -492.0Q2824.0 -521 2900.0 -521H2922.0Q2998.0 -521 3051.5 -492.0Q3105.0 -463 3133.5 -412.0Q3162.0 -361 3162.0 -294V-232H2824.0Q2824.0 -195 2832.0 -165.0Q2840.0 -135 2858.0 -118.0Q2876.0 -101 2909.0 -101Q2937.0 -101 2956.5 -111.5Q2976.0 -122 2986.5 -143.0Q2997.0 -164 2997.0 -192H3161.0Q3161.0 -135 3130.5 -89.0Q3100.0 -43 3044.5 -16.5Q2989.0 10 2913.0 10ZM2825.0 -313H2987.0Q2987.0 -364 2965.0 -387.5Q2943.0 -411 2907.0 -411Q2871.0 -411 2848.0 -386.0Q2825.0 -361 2825.0 -313ZM3238.0 0V-686H3595.0Q3646.0 -686 3688.5 -667.5Q3731.0 -649 3755.5 -613.0Q3780.0 -577 3780.0 -526Q3780.0 -477 3763.5 -443.5Q3747.0 -410 3720.5 -389.5Q3694.0 -369 3664.0 -358V-354Q3687.0 -349 3710.5 -337.5Q3734.0 -326 3753.5 -307.0Q3773.0 -288 3784.5 -261.0Q3796.0 -234 3796.0 -198Q3796.0 -139 3768.0 -94.5Q3740.0 -50 3694.0 -25.0Q3648.0 0 3594.0 0ZM3413.0 -139H3542.0Q3564.0 -139 3580.0 -148.5Q3596.0 -158 3605.0 -176.0Q3614.0 -194 3614.0 -218Q3614.0 -240 3604.0 -254.5Q3594.0 -269 3578.5 -276.0Q3563.0 -283 3544.0 -283H3413.0ZM3413.0 -416H3539.0Q3561.0 -416 3575.0 -426.5Q3589.0 -437 3595.0 -454.0Q3601.0 -471 3601.0 -490Q3601.0 -524 3584.5 -538.5Q3568.0 -553 3542.0 -553H3413.0ZM3863.0 0V-720H4041.0V0ZM4367.0 10Q4293.0 10 4234.5 -22.0Q4176.0 -54 4142.5 -112.0Q4109.0 -170 4109.0 -246V-266Q4109.0 -343 4142.5 -400.0Q4176.0 -457 4234.0 -489.0Q4292.0 -521 4366.0 -521H4394.0Q4469.0 -521 4527.0 -489.0Q4585.0 -457 4618.5 -400.0Q4652.0 -343 4652.0 -266V-246Q4652.0 -169 4618.5 -111.5Q4585.0 -54 4527.0 -22.0Q4469.0 10 4395.0 10ZM4380.0 -101Q4404.0 -101 4422.5 -112.0Q4441.0 -123 4452.0 -143.5Q4463.0 -164 4463.0 -190V-322Q4463.0 -349 4452.0 -368.5Q4441.0 -388 4422.5 -399.5Q4404.0 -411 4380.0 -411Q4358.0 -411 4339.0 -399.5Q4320.0 -388 4309.0 -368.5Q4298.0 -349 4298.0 -322V-190Q4298.0 -164 4309.0 -143.5Q4320.0 -123 4339.0 -112.0Q4358.0 -101 4380.0 -101ZM4939.0 10Q4873.0 10 4817.5 -22.5Q4762.0 -55 4729.0 -111.5Q4696.0 -168 4696.0 -237V-274Q4696.0 -327 4715.5 -371.5Q4735.0 -416 4769.0 -450.0Q4803.0 -484 4847.5 -502.5Q4892.0 -521 4942.0 -521H4969.0Q5042.0 -521 5093.5 -493.0Q5145.0 -465 5172.5 -416.5Q5200.0 -368 5200.0 -306H5047.0Q5047.0 -341 5038.5 -364.0Q5030.0 -387 5012.0 -399.0Q4994.0 -411 4967.0 -411Q4932.0 -411 4908.5 -386.5Q4885.0 -362 4885.0 -323V-189Q4885.0 -150 4906.0 -125.5Q4927.0 -101 4969.0 -101Q5000.0 -101 5019.5 -110.5Q5039.0 -120 5048.0 -143.0Q5057.0 -166 5057.0 -206H5200.0Q5200.0 -137 5170.0 -89.0Q5140.0 -41 5087.0 -15.5Q5034.0 10 4965.0 10ZM5263.0 0V-720H5441.0V-302L5593.0 -511H5796.0L5612.0 -279L5801.0 0H5591.0L5486.0 -158L5441.0 -116V0Z"/></g>
</svg>
  <g transform="translate(85.37 399.03) scale(0.017527)"><path fill="#F0EEE9" d="M150.0 0V-1490H720.0Q881.0 -1490 988.0 -1439.0Q1095.0 -1388 1148.0 -1301.0Q1201.0 -1214 1201.0 -1103Q1201.0 -1012 1166.0 -947.5Q1131.0 -883 1072.5 -843.0Q1014.0 -803 941.0 -786V-771Q1020.0 -767 1093.0 -723.0Q1166.0 -679 1212.5 -599.0Q1259.0 -519 1259.0 -406Q1259.0 -290 1203.0 -198.0Q1147.0 -106 1034.5 -53.0Q922.0 0 751.0 0ZM417.0 -223H709.0Q857.0 -223 922.5 -280.0Q988.0 -337 988.0 -426Q988.0 -493 955.0 -546.5Q922.0 -600 861.5 -631.0Q801.0 -662 718.0 -662H417.0ZM417.0 -855H686.0Q757.0 -855 813.0 -881.0Q869.0 -907 901.5 -955.0Q934.0 -1003 934.0 -1069Q934.0 -1156 873.0 -1212.0Q812.0 -1268 692.0 -1268H417.0ZM1969.712 23Q1800.712 23 1679.212 -48.0Q1557.712 -119 1492.212 -248.0Q1426.712 -377 1426.712 -552Q1426.712 -725 1491.212 -855.0Q1555.712 -985 1674.212 -1058.5Q1792.712 -1132 1952.712 -1132Q2054.712 -1132 2147.212 -1099.0Q2239.712 -1066 2311.212 -997.0Q2382.712 -928 2423.212 -821.5Q2463.712 -715 2463.712 -568V-486H1549.712V-663H2334.712L2212.712 -611Q2212.712 -705 2183.712 -776.5Q2154.712 -848 2097.212 -888.0Q2039.712 -928 1953.712 -928Q1867.712 -928 1807.712 -887.5Q1747.712 -847 1716.212 -779.5Q1684.712 -712 1684.712 -629V-507Q1684.712 -401 1720.712 -328.0Q1756.712 -255 1821.712 -218.0Q1886.712 -181 1972.712 -181Q2029.712 -181 2076.212 -197.5Q2122.712 -214 2156.712 -246.5Q2190.712 -279 2207.712 -326L2446.712 -277Q2419.712 -187 2354.712 -119.5Q2289.712 -52 2192.212 -14.5Q2094.712 23 1969.712 23ZM3262.424 -1118V-914H2556.424V-1118ZM2761.424 0V-1225Q2761.424 -1337 2807.924 -1411.0Q2854.424 -1485 2933.924 -1522.5Q3013.424 -1560 3108.424 -1560Q3177.424 -1560 3230.424 -1549.0Q3283.424 -1538 3308.424 -1529L3255.424 -1327Q3238.424 -1332 3213.924 -1337.5Q3189.424 -1343 3156.424 -1343Q3083.424 -1343 3051.924 -1307.0Q3020.424 -1271 3020.424 -1205V0ZM3894.136 23Q3731.136 23 3611.136 -49.5Q3491.136 -122 3425.636 -251.5Q3360.136 -381 3360.136 -553Q3360.136 -727 3425.636 -857.5Q3491.136 -988 3611.136 -1060.0Q3731.136 -1132 3894.136 -1132Q4058.136 -1132 4178.136 -1060.0Q4298.136 -988 4363.636 -857.5Q4429.136 -727 4429.136 -553Q4429.136 -381 4363.636 -251.5Q4298.136 -122 4178.136 -49.5Q4058.136 23 3894.136 23ZM3894.136 -188Q3985.136 -188 4045.6360000000004 -237.0Q4106.136 -286 4135.636 -369.0Q4165.136 -452 4165.136 -554Q4165.136 -657 4135.636 -740.0Q4106.136 -823 4045.6360000000004 -872.0Q3985.136 -921 3894.136 -921Q3803.136 -921 3743.636 -872.0Q3684.136 -823 3654.636 -740.5Q3625.136 -658 3625.136 -554Q3625.136 -452 3654.636 -369.0Q3684.136 -286 3743.636 -237.0Q3803.136 -188 3894.136 -188ZM4643.848 0V-1118H4895.848V-931H4907.848Q4937.848 -1028 5012.848 -1080.5Q5087.848 -1133 5183.848 -1133Q5205.848 -1133 5232.848 -1131.0Q5259.848 -1129 5278.848 -1126V-887Q5262.848 -892 5226.848 -896.0Q5190.848 -900 5155.848 -900Q5083.848 -900 5026.348 -869.0Q4968.848 -838 4936.348 -783.5Q4903.848 -729 4903.848 -658V0ZM5893.5599999999995 23Q5724.5599999999995 23 5603.0599999999995 -48.0Q5481.5599999999995 -119 5416.0599999999995 -248.0Q5350.5599999999995 -377 5350.5599999999995 -552Q5350.5599999999995 -725 5415.0599999999995 -855.0Q5479.5599999999995 -985 5598.0599999999995 -1058.5Q5716.5599999999995 -1132 5876.5599999999995 -1132Q5978.5599999999995 -1132 6071.0599999999995 -1099.0Q6163.5599999999995 -1066 6235.0599999999995 -997.0Q6306.5599999999995 -928 6347.0599999999995 -821.5Q6387.5599999999995 -715 6387.5599999999995 -568V-486H5473.5599999999995V-663H6258.5599999999995L6136.5599999999995 -611Q6136.5599999999995 -705 6107.5599999999995 -776.5Q6078.5599999999995 -848 6021.0599999999995 -888.0Q5963.5599999999995 -928 5877.5599999999995 -928Q5791.5599999999995 -928 5731.5599999999995 -887.5Q5671.5599999999995 -847 5640.0599999999995 -779.5Q5608.5599999999995 -712 5608.5599999999995 -629V-507Q5608.5599999999995 -401 5644.5599999999995 -328.0Q5680.5599999999995 -255 5745.5599999999995 -218.0Q5810.5599999999995 -181 5896.5599999999995 -181Q5953.5599999999995 -181 6000.0599999999995 -197.5Q6046.5599999999995 -214 6080.5599999999995 -246.5Q6114.5599999999995 -279 6131.5599999999995 -326L6370.5599999999995 -277Q6343.5599999999995 -187 6278.5599999999995 -119.5Q6213.5599999999995 -52 6116.0599999999995 -14.5Q6018.5599999999995 23 5893.5599999999995 23ZM7101.983999999999 0V-1118H7361.983999999999V0ZM7231.983999999999 -1276Q7169.983999999999 -1276 7125.483999999999 -1318.0Q7080.983999999999 -1360 7080.983999999999 -1418Q7080.983999999999 -1478 7125.483999999999 -1519.5Q7169.983999999999 -1561 7231.983999999999 -1561Q7294.983999999999 -1561 7339.483999999999 -1519.5Q7383.983999999999 -1478 7383.983999999999 -1419Q7383.983999999999 -1360 7339.483999999999 -1318.0Q7294.983999999999 -1276 7231.983999999999 -1276ZM8142.695999999998 -1118V-914H7507.695999999998V-1118ZM7666.695999999998 -1384H7926.695999999998V-315Q7926.695999999998 -254 7952.695999999998 -225.5Q7978.695999999998 -197 8037.695999999998 -197Q8055.695999999998 -197 8085.195999999998 -201.5Q8114.695999999998 -206 8132.695999999998 -210L8173.695999999998 -9Q8130.695999999998 4 8085.695999999998 9.5Q8040.695999999998 15 7999.695999999998 15Q7838.695999999998 15 7752.695999999998 -65.0Q7666.695999999998 -145 7666.695999999998 -293ZM9100.119999999997 -655V0H8840.119999999997V-1490H9096.119999999997V-842H9069.119999999997Q9116.119999999997 -987 9207.119999999997 -1059.5Q9298.119999999997 -1132 9435.119999999997 -1132Q9550.119999999997 -1132 9636.619999999997 -1083.0Q9723.119999999997 -1034 9770.619999999997 -940.0Q9818.119999999997 -846 9818.119999999997 -711V0H9557.119999999997V-671Q9557.119999999997 -783 9499.119999999997 -847.0Q9441.119999999997 -911 9339.119999999997 -911Q9270.119999999997 -911 9216.119999999997 -881.0Q9162.119999999997 -851 9131.119999999997 -793.5Q9100.119999999997 -736 9100.119999999997 -655ZM10081.831999999997 0V-1118H10341.831999999997V0ZM10211.831999999997 -1276Q10149.831999999997 -1276 10105.331999999997 -1318.0Q10060.831999999997 -1360 10060.831999999997 -1418Q10060.831999999997 -1478 10105.331999999997 -1519.5Q10149.831999999997 -1561 10211.831999999997 -1561Q10274.831999999997 -1561 10319.331999999997 -1519.5Q10363.831999999997 -1478 10363.831999999997 -1419Q10363.831999999997 -1360 10319.331999999997 -1318.0Q10274.831999999997 -1276 10211.831999999997 -1276ZM11122.543999999996 -1118V-914H10487.543999999996V-1118ZM10646.543999999996 -1384H10906.543999999996V-315Q10906.543999999996 -254 10932.543999999996 -225.5Q10958.543999999996 -197 11017.543999999996 -197Q11035.543999999996 -197 11065.043999999996 -201.5Q11094.543999999996 -206 11112.543999999996 -210L11153.543999999996 -9Q11110.543999999996 4 11065.543999999996 9.5Q11020.543999999996 15 10979.543999999996 15Q10818.543999999996 15 10732.543999999996 -65.0Q10646.543999999996 -145 10646.543999999996 -293ZM11722.255999999996 23Q11593.255999999996 23 11494.255999999996 -14.0Q11395.255999999996 -51 11331.755999999996 -122.0Q11268.255999999996 -193 11249.255999999996 -294L11492.255999999996 -340Q11515.255999999996 -257 11573.755999999996 -216.5Q11632.255999999996 -176 11727.255999999996 -176Q11823.255999999996 -176 11879.755999999996 -214.5Q11936.255999999996 -253 11936.255999999996 -310Q11936.255999999996 -358 11899.255999999996 -389.5Q11862.255999999996 -421 11785.255999999996 -438L11594.255999999996 -479Q11436.255999999996 -513 11358.255999999996 -591.0Q11280.255999999996 -669 11280.255999999996 -792Q11280.255999999996 -896 11337.255999999996 -972.0Q11394.255999999996 -1048 11495.755999999996 -1090.0Q11597.255999999996 -1132 11731.255999999996 -1132Q11858.255999999996 -1132 11949.755999999996 -1096.0Q12041.255999999996 -1060 12097.755999999996 -995.5Q12154.255999999996 -931 12176.255999999996 -844L11944.255999999996 -798Q11925.255999999996 -857 11875.255999999996 -897.5Q11825.255999999996 -938 11734.255999999996 -938Q11651.255999999996 -938 11595.755999999996 -901.5Q11540.255999999996 -865 11540.255999999996 -808Q11540.255999999996 -759 11577.255999999996 -727.0Q11614.255999999996 -695 11699.255999999996 -677L11889.255999999996 -637Q12048.255999999996 -603 12125.255999999996 -528.0Q12202.255999999996 -453 12202.255999999996 -335Q12202.255999999996 -229 12141.255999999996 -148.5Q12080.255999999996 -68 11971.755999999996 -22.5Q11863.255999999996 23 11722.255999999996 23ZM13432.679999999995 -1118V-914H12797.679999999995V-1118ZM12956.679999999995 -1384H13216.679999999995V-315Q13216.679999999995 -254 13242.679999999995 -225.5Q13268.679999999995 -197 13327.679999999995 -197Q13345.679999999995 -197 13375.179999999995 -201.5Q13404.679999999995 -206 13422.679999999995 -210L13463.679999999995 -9Q13420.679999999995 4 13375.679999999995 9.5Q13330.679999999995 15 13289.679999999995 15Q13128.679999999995 15 13042.679999999995 -65.0Q12956.679999999995 -145 12956.679999999995 -293ZM13890.391999999994 -655V0H13630.391999999994V-1490H13886.391999999994V-842H13859.391999999994Q13906.391999999994 -987 13997.391999999994 -1059.5Q14088.391999999994 -1132 14225.391999999994 -1132Q14340.391999999994 -1132 14426.891999999994 -1083.0Q14513.391999999994 -1034 14560.891999999994 -940.0Q14608.391999999994 -846 14608.391999999994 -711V0H14347.391999999994V-671Q14347.391999999994 -783 14289.391999999994 -847.0Q14231.391999999994 -911 14129.391999999994 -911Q14060.391999999994 -911 14006.391999999994 -881.0Q13952.391999999994 -851 13921.391999999994 -793.5Q13890.391999999994 -736 13890.391999999994 -655ZM15366.103999999994 23Q15197.103999999994 23 15075.603999999994 -48.0Q14954.103999999994 -119 14888.603999999994 -248.0Q14823.103999999994 -377 14823.103999999994 -552Q14823.103999999994 -725 14887.603999999994 -855.0Q14952.103999999994 -985 15070.603999999994 -1058.5Q15189.103999999994 -1132 15349.103999999994 -1132Q15451.103999999994 -1132 15543.603999999994 -1099.0Q15636.103999999994 -1066 15707.603999999994 -997.0Q15779.103999999994 -928 15819.603999999994 -821.5Q15860.103999999994 -715 15860.103999999994 -568V-486H14946.103999999994V-663H15731.103999999994L15609.103999999994 -611Q15609.103999999994 -705 15580.103999999994 -776.5Q15551.103999999994 -848 15493.603999999994 -888.0Q15436.103999999994 -928 15350.103999999994 -928Q15264.103999999994 -928 15204.103999999994 -887.5Q15144.103999999994 -847 15112.603999999994 -779.5Q15081.103999999994 -712 15081.103999999994 -629V-507Q15081.103999999994 -401 15117.103999999994 -328.0Q15153.103999999994 -255 15218.103999999994 -218.0Q15283.103999999994 -181 15369.103999999994 -181Q15426.103999999994 -181 15472.603999999994 -197.5Q15519.103999999994 -214 15553.103999999994 -246.5Q15587.103999999994 -279 15604.103999999994 -326L15843.103999999994 -277Q15816.103999999994 -187 15751.103999999994 -119.5Q15686.103999999994 -52 15588.603999999994 -14.5Q15491.103999999994 23 15366.103999999994 23ZM17164.527999999995 20Q17069.527999999995 20 17005.527999999995 -12.5Q16941.527999999995 -45 16903.527999999995 -91.0Q16865.527999999995 -137 16845.527999999995 -177H16828.527999999995V0H16574.527999999995V-1490H16834.527999999995V-933H16845.527999999995Q16865.527999999995 -973 16902.527999999995 -1019.0Q16939.527999999995 -1065 17003.027999999995 -1098.5Q17066.527999999995 -1132 17165.527999999995 -1132Q17295.527999999995 -1132 17399.527999999995 -1066.0Q17503.527999999995 -1000 17565.027999999995 -871.5Q17626.527999999995 -743 17626.527999999995 -557Q17626.527999999995 -373 17566.527999999995 -244.0Q17506.527999999995 -115 17402.027999999995 -47.5Q17297.527999999995 20 17164.527999999995 20ZM17094.527999999995 -194Q17181.527999999995 -194 17240.527999999995 -241.5Q17299.527999999995 -289 17329.527999999995 -371.5Q17359.527999999995 -454 17359.527999999995 -558Q17359.527999999995 -662 17330.027999999995 -743.5Q17300.527999999995 -825 17241.527999999995 -871.5Q17182.527999999995 -918 17094.527999999995 -918Q17008.527999999995 -918 16949.527999999995 -873.0Q16890.527999999995 -828 16860.027999999995 -747.5Q16829.527999999995 -667 16829.527999999995 -558Q16829.527999999995 -449 16860.027999999995 -367.0Q16890.527999999995 -285 16950.027999999995 -239.5Q17009.527999999995 -194 17094.527999999995 -194ZM18100.239999999994 -1490V0H17840.239999999994V-1490ZM18848.951999999994 23Q18685.951999999994 23 18565.951999999994 -49.5Q18445.951999999994 -122 18380.451999999994 -251.5Q18314.951999999994 -381 18314.951999999994 -553Q18314.951999999994 -727 18380.451999999994 -857.5Q18445.951999999994 -988 18565.951999999994 -1060.0Q18685.951999999994 -1132 18848.951999999994 -1132Q19012.951999999994 -1132 19132.951999999994 -1060.0Q19252.951999999994 -988 19318.451999999994 -857.5Q19383.951999999994 -727 19383.951999999994 -553Q19383.951999999994 -381 19318.451999999994 -251.5Q19252.951999999994 -122 19132.951999999994 -49.5Q19012.951999999994 23 18848.951999999994 23ZM18848.951999999994 -188Q18939.951999999994 -188 19000.451999999994 -237.0Q19060.951999999994 -286 19090.451999999994 -369.0Q19119.951999999994 -452 19119.951999999994 -554Q19119.951999999994 -657 19090.451999999994 -740.0Q19060.951999999994 -823 19000.451999999994 -872.0Q18939.951999999994 -921 18848.951999999994 -921Q18757.951999999994 -921 18698.451999999994 -872.0Q18638.951999999994 -823 18609.451999999994 -740.5Q18579.951999999994 -658 18579.951999999994 -554Q18579.951999999994 -452 18609.451999999994 -369.0Q18638.951999999994 -286 18698.451999999994 -237.0Q18757.951999999994 -188 18848.951999999994 -188ZM20083.663999999993 23Q19920.663999999993 23 19800.663999999993 -49.5Q19680.663999999993 -122 19615.163999999993 -251.5Q19549.663999999993 -381 19549.663999999993 -553Q19549.663999999993 -727 19615.163999999993 -857.5Q19680.663999999993 -988 19800.663999999993 -1060.0Q19920.663999999993 -1132 20083.663999999993 -1132Q20176.663999999993 -1132 20256.663999999993 -1108.0Q20336.663999999993 -1084 20399.663999999993 -1038.5Q20462.663999999993 -993 20505.163999999993 -928.0Q20547.663999999993 -863 20565.663999999993 -781L20322.663999999993 -730Q20311.663999999993 -773 20291.163999999993 -808.5Q20270.663999999993 -844 20240.663999999993 -869.0Q20210.663999999993 -894 20171.663999999993 -907.5Q20132.663999999993 -921 20085.663999999993 -921Q19994.663999999993 -921 19934.663999999993 -872.5Q19874.663999999993 -824 19844.663999999993 -741.5Q19814.663999999993 -659 19814.663999999993 -554Q19814.663999999993 -451 19844.663999999993 -368.0Q19874.663999999993 -285 19934.663999999993 -236.5Q19994.663999999993 -188 20085.663999999993 -188Q20133.663999999993 -188 20173.163999999993 -202.0Q20212.663999999993 -216 20243.163999999993 -242.0Q20273.663999999993 -268 20294.663999999993 -305.0Q20315.663999999993 -342 20325.663999999993 -387L20568.663999999993 -336Q20550.663999999993 -252 20508.163999999993 -186.0Q20465.663999999993 -120 20402.163999999993 -73.5Q20338.663999999993 -27 20258.163999999993 -2.0Q20177.663999999993 23 20083.663999999993 23ZM21017.375999999993 -352V-667H21058.375999999993L21461.375999999993 -1118H21766.375999999993L21272.375999999993 -567H21218.375999999993ZM20779.375999999993 0V-1490H21039.375999999993V0ZM21480.375999999993 0 21114.375999999993 -509 21290.375999999993 -693 21792.375999999993 0ZM22121.087999999992 17Q22054.087999999992 17 22007.587999999992 -29.0Q21961.087999999992 -75 21961.087999999992 -143Q21961.087999999992 -210 22007.587999999992 -256.0Q22054.087999999992 -302 22121.087999999992 -302Q22189.087999999992 -302 22235.587999999992 -256.0Q22282.087999999992 -210 22282.087999999992 -143Q22282.087999999992 -75 22235.587999999992 -29.0Q22189.087999999992 17 22121.087999999992 17Z"/></g>
  <g transform="translate(86.49 564.00) scale(0.010219)"><path fill="#9AA1AC" d="M703.0 22Q602.0 22 537.5 -12.5Q473.0 -47 436.5 -93.0Q400.0 -139 380.0 -175H362.0V0H148.0V-1490H368.0V-936H380.0Q400.0 -971 435.5 -1017.0Q471.0 -1063 534.5 -1097.5Q598.0 -1132 703.0 -1132Q837.0 -1132 942.5 -1064.0Q1048.0 -996 1109.0 -867.0Q1170.0 -738 1170.0 -556Q1170.0 -376 1110.0 -246.5Q1050.0 -117 944.5 -47.5Q839.0 22 703.0 22ZM654.0 -165Q750.0 -165 815.0 -217.0Q880.0 -269 912.5 -358.0Q945.0 -447 945.0 -558Q945.0 -668 912.5 -755.5Q880.0 -843 815.5 -894.0Q751.0 -945 654.0 -945Q560.0 -945 495.0 -896.5Q430.0 -848 397.0 -761.5Q364.0 -675 364.0 -558Q364.0 -442 397.5 -353.5Q431.0 -265 496.0 -215.0Q561.0 -165 654.0 -165ZM1621.712 -1490V0H1401.712V-1490ZM2375.424 23Q2218.424 23 2100.924 -49.0Q1983.424 -121 1918.424 -251.0Q1853.424 -381 1853.424 -553Q1853.424 -727 1918.424 -857.5Q1983.424 -988 2100.924 -1060.0Q2218.424 -1132 2375.424 -1132Q2533.424 -1132 2650.924 -1060.0Q2768.424 -988 2833.424 -857.5Q2898.424 -727 2898.424 -553Q2898.424 -381 2833.424 -251.0Q2768.424 -121 2650.924 -49.0Q2533.424 23 2375.424 23ZM2375.424 -163Q2477.424 -163 2543.924 -216.5Q2610.424 -270 2642.924 -358.5Q2675.424 -447 2675.424 -553Q2675.424 -660 2642.924 -749.5Q2610.424 -839 2543.924 -892.5Q2477.424 -946 2375.424 -946Q2274.424 -946 2208.424 -892.5Q2142.424 -839 2109.924 -750.0Q2077.424 -661 2077.424 -553Q2077.424 -447 2109.924 -358.5Q2142.424 -270 2208.424 -216.5Q2274.424 -163 2375.424 -163ZM3600.136 23Q3442.136 23 3325.136 -49.0Q3208.136 -121 3143.136 -251.0Q3078.136 -381 3078.136 -553Q3078.136 -727 3143.136 -857.5Q3208.136 -988 3325.136 -1060.0Q3442.136 -1132 3600.136 -1132Q3687.136 -1132 3763.136 -1109.5Q3839.136 -1087 3900.636 -1044.5Q3962.136 -1002 4004.636 -940.5Q4047.136 -879 4068.136 -802L3859.136 -752Q3848.136 -795 3825.136 -830.5Q3802.136 -866 3769.636 -892.0Q3737.136 -918 3694.636 -932.0Q3652.136 -946 3601.136 -946Q3500.136 -946 3433.636 -892.5Q3367.136 -839 3334.636 -750.0Q3302.136 -661 3302.136 -553Q3302.136 -446 3334.636 -357.5Q3367.136 -269 3433.636 -216.0Q3500.136 -163 3601.136 -163Q3653.136 -163 3696.136 -177.5Q3739.136 -192 3773.136 -218.5Q3807.136 -245 3830.136 -282.5Q3853.136 -320 3863.136 -365L4071.136 -315Q4051.136 -236 4008.136 -173.5Q3965.136 -111 3903.636 -67.0Q3842.136 -23 3765.136 0.0Q3688.136 23 3600.136 23ZM4502.848 -377V-646H4539.848L4980.848 -1118H5244.848L4739.848 -577H4702.848ZM4299.848 0V-1490H4519.848V0ZM5003.848 0 4606.848 -528 4758.848 -684 5275.848 0ZM5987.5599999999995 22Q5886.5599999999995 22 5822.0599999999995 -12.5Q5757.5599999999995 -47 5721.0599999999995 -93.0Q5684.5599999999995 -139 5664.5599999999995 -175H5646.5599999999995V0H5432.5599999999995V-1490H5652.5599999999995V-936H5664.5599999999995Q5684.5599999999995 -971 5720.0599999999995 -1017.0Q5755.5599999999995 -1063 5819.0599999999995 -1097.5Q5882.5599999999995 -1132 5987.5599999999995 -1132Q6121.5599999999995 -1132 6227.0599999999995 -1064.0Q6332.5599999999995 -996 6393.5599999999995 -867.0Q6454.5599999999995 -738 6454.5599999999995 -556Q6454.5599999999995 -376 6394.5599999999995 -246.5Q6334.5599999999995 -117 6229.0599999999995 -47.5Q6123.5599999999995 22 5987.5599999999995 22ZM5938.5599999999995 -165Q6034.5599999999995 -165 6099.5599999999995 -217.0Q6164.5599999999995 -269 6197.0599999999995 -358.0Q6229.5599999999995 -447 6229.5599999999995 -558Q6229.5599999999995 -668 6197.0599999999995 -755.5Q6164.5599999999995 -843 6100.0599999999995 -894.0Q6035.5599999999995 -945 5938.5599999999995 -945Q5844.5599999999995 -945 5779.5599999999995 -896.5Q5714.5599999999995 -848 5681.5599999999995 -761.5Q5648.5599999999995 -675 5648.5599999999995 -558Q5648.5599999999995 -442 5682.0599999999995 -353.5Q5715.5599999999995 -265 5780.5599999999995 -215.0Q5845.5599999999995 -165 5938.5599999999995 -165ZM7019.271999999999 25Q6913.271999999999 25 6827.271999999999 -14.5Q6741.271999999999 -54 6691.271999999999 -130.0Q6641.271999999999 -206 6641.271999999999 -316Q6641.271999999999 -411 6677.771999999999 -472.0Q6714.271999999999 -533 6776.771999999999 -569.0Q6839.271999999999 -605 6915.771999999999 -623.0Q6992.271999999999 -641 7071.271999999999 -650Q7170.271999999999 -662 7232.271999999999 -669.5Q7294.271999999999 -677 7323.771999999999 -694.5Q7353.271999999999 -712 7353.271999999999 -751V-757Q7353.271999999999 -820 7329.271999999999 -863.0Q7305.271999999999 -906 7257.771999999999 -929.5Q7210.271999999999 -953 7139.271999999999 -953Q7066.271999999999 -953 7013.771999999999 -930.5Q6961.271999999999 -908 6928.771999999999 -873.0Q6896.271999999999 -838 6880.271999999999 -800L6673.271999999999 -854Q6711.271999999999 -954 6782.271999999999 -1015.0Q6853.271999999999 -1076 6945.271999999999 -1104.0Q7037.271999999999 -1132 7135.271999999999 -1132Q7203.271999999999 -1132 7279.271999999999 -1116.0Q7355.271999999999 -1100 7422.271999999999 -1058.0Q7489.271999999999 -1016 7531.271999999999 -940.0Q7573.271999999999 -864 7573.271999999999 -742V0H7360.271999999999V-153H7349.271999999999Q7327.271999999999 -110 7284.271999999999 -69.0Q7241.271999999999 -28 7175.771999999999 -1.5Q7110.271999999999 25 7019.271999999999 25ZM7068.271999999999 -152Q7158.271999999999 -152 7222.271999999999 -187.0Q7286.271999999999 -222 7320.271999999999 -280.0Q7354.271999999999 -338 7354.271999999999 -403V-546Q7342.271999999999 -534 7308.771999999999 -524.5Q7275.271999999999 -515 7232.271999999999 -507.5Q7189.271999999999 -500 7149.271999999999 -495.0Q7109.271999999999 -490 7083.271999999999 -487Q7021.271999999999 -479 6969.771999999999 -460.0Q6918.271999999999 -441 6887.771999999999 -406.0Q6857.271999999999 -371 6857.271999999999 -313Q6857.271999999999 -260 6884.771999999999 -224.0Q6912.271999999999 -188 6959.271999999999 -170.0Q7006.271999999999 -152 7068.271999999999 -152ZM8076.983999999999 -1490V0H7856.983999999999V-1490ZM8580.695999999998 -1490V0H8360.695999999998V-1490ZM8864.407999999998 0V-1118H9077.407999999998V-938H9089.407999999998Q9120.407999999998 -1030 9197.407999999998 -1082.0Q9274.407999999998 -1134 9372.407999999998 -1134Q9393.407999999998 -1134 9420.407999999998 -1132.5Q9447.407999999998 -1131 9465.407999999998 -1128V-918Q9453.407999999998 -922 9419.407999999998 -926.0Q9385.407999999998 -930 9350.407999999998 -930Q9274.407999999998 -930 9213.407999999998 -898.0Q9152.407999999998 -866 9118.407999999998 -809.5Q9084.407999999998 -753 9084.407999999998 -679V0ZM9679.119999999997 15Q9617.119999999997 15 9574.119999999997 -28.0Q9531.119999999997 -71 9531.119999999997 -132Q9531.119999999997 -194 9574.119999999997 -236.5Q9617.119999999997 -279 9679.119999999997 -279Q9740.119999999997 -279 9783.119999999997 -236.5Q9826.119999999997 -194 9826.119999999997 -132Q9826.119999999997 -71 9783.119999999997 -28.0Q9740.119999999997 15 9679.119999999997 15ZM10591.831999999997 442Q10462.831999999997 442 10367.831999999997 409.0Q10272.831999999997 376 10211.331999999997 321.0Q10149.831999999997 266 10117.831999999997 199L10301.831999999997 112Q10321.831999999997 144 10355.331999999997 179.5Q10388.831999999997 215 10445.831999999997 240.0Q10502.831999999997 265 10591.831999999997 265Q10719.831999999997 265 10799.331999999997 204.5Q10878.831999999997 144 10878.831999999997 15V-203H10859.831999999997Q10839.831999999997 -166 10804.331999999997 -123.0Q10768.831999999997 -80 10705.331999999997 -48.5Q10641.831999999997 -17 10539.831999999997 -17Q10407.831999999997 -17 10302.331999999997 -79.0Q10196.831999999997 -141 10134.831999999997 -263.0Q10072.831999999997 -385 10072.831999999997 -563Q10072.831999999997 -741 10134.331999999997 -868.5Q10195.831999999997 -996 10302.331999999997 -1064.0Q10408.831999999997 -1132 10542.831999999997 -1132Q10645.831999999997 -1132 10710.331999999997 -1098.0Q10774.831999999997 -1064 10811.331999999997 -1017.5Q10847.831999999997 -971 10866.831999999997 -936H10882.831999999997V-1118H11097.831999999997V16Q11097.831999999997 163 11031.331999999997 257.5Q10964.831999999997 352 10850.331999999997 397.0Q10735.831999999997 442 10591.831999999997 442ZM10590.831999999997 -200Q10684.831999999997 -200 10749.331999999997 -243.5Q10813.831999999997 -287 10846.831999999997 -369.5Q10879.831999999997 -452 10879.831999999997 -566Q10879.831999999997 -679 10846.831999999997 -764.0Q10813.831999999997 -849 10749.331999999997 -897.0Q10684.831999999997 -945 10590.831999999997 -945Q10493.831999999997 -945 10428.831999999997 -894.5Q10363.831999999997 -844 10330.831999999997 -758.5Q10297.831999999997 -673 10297.831999999997 -566Q10297.831999999997 -457 10330.831999999997 -374.5Q10363.831999999997 -292 10429.331999999997 -246.0Q10494.831999999997 -200 10590.831999999997 -200ZM11381.543999999996 0V-1118H11601.543999999996V0ZM11492.543999999996 -1289Q11435.543999999996 -1289 11395.043999999996 -1327.0Q11354.543999999996 -1365 11354.543999999996 -1419Q11354.543999999996 -1474 11395.043999999996 -1512.0Q11435.543999999996 -1550 11492.543999999996 -1550Q11549.543999999996 -1550 11590.543999999996 -1512.0Q11631.543999999996 -1474 11631.543999999996 -1419Q11631.543999999996 -1365 11590.543999999996 -1327.0Q11549.543999999996 -1289 11492.543999999996 -1289ZM12363.255999999996 -1118V-939H11757.255999999996V-1118ZM11920.255999999996 -1384H12140.255999999996V-302Q12140.255999999996 -235 12168.755999999996 -203.5Q12197.255999999996 -172 12262.255999999996 -172Q12279.255999999996 -172 12307.255999999996 -176.0Q12335.255999999996 -180 12355.255999999996 -184L12394.255999999996 -8Q12359.255999999996 4 12319.255999999996 9.5Q12279.255999999996 15 12240.255999999996 15Q12088.255999999996 15 12004.255999999996 -63.5Q11920.255999999996 -142 11920.255999999996 -284ZM12791.967999999995 -662V0H12571.967999999995V-1490H12789.967999999995V-844H12760.967999999995Q12809.967999999995 -994 12902.967999999995 -1063.0Q12995.967999999995 -1132 13127.967999999995 -1132Q13241.967999999995 -1132 13327.467999999995 -1084.0Q13412.967999999995 -1036 13460.467999999995 -942.5Q13507.967999999995 -849 13507.967999999995 -710V0H13287.967999999995V-683Q13287.967999999995 -804 13224.967999999995 -872.0Q13161.967999999995 -940 13051.967999999995 -940Q12977.967999999995 -940 12918.967999999995 -907.5Q12859.967999999995 -875 12825.967999999995 -813.0Q12791.967999999995 -751 12791.967999999995 -662ZM14172.679999999995 14Q14058.679999999995 14 13972.679999999995 -34.0Q13886.679999999995 -82 13839.179999999995 -176.0Q13791.679999999995 -270 13791.679999999995 -408V-1118H14011.679999999995V-435Q14011.679999999995 -314 14075.179999999995 -246.0Q14138.679999999995 -178 14247.679999999995 -178Q14322.679999999995 -178 14381.179999999995 -210.5Q14439.679999999995 -243 14473.679999999995 -305.5Q14507.679999999995 -368 14507.679999999995 -456V-1118H14727.679999999995V0H14517.679999999995L14516.679999999995 -274H14537.679999999995Q14488.679999999995 -122 14394.679999999995 -54.0Q14300.679999999995 14 14172.679999999995 14ZM15566.391999999994 22Q15465.391999999994 22 15400.891999999994 -12.5Q15336.391999999994 -47 15299.891999999994 -93.0Q15263.391999999994 -139 15243.391999999994 -175H15225.391999999994V0H15011.391999999994V-1490H15231.391999999994V-936H15243.391999999994Q15263.391999999994 -971 15298.891999999994 -1017.0Q15334.391999999994 -1063 15397.891999999994 -1097.5Q15461.391999999994 -1132 15566.391999999994 -1132Q15700.391999999994 -1132 15805.891999999994 -1064.0Q15911.391999999994 -996 15972.391999999994 -867.0Q16033.391999999994 -738 16033.391999999994 -556Q16033.391999999994 -376 15973.391999999994 -246.5Q15913.391999999994 -117 15807.891999999994 -47.5Q15702.391999999994 22 15566.391999999994 22ZM15517.391999999994 -165Q15613.391999999994 -165 15678.391999999994 -217.0Q15743.391999999994 -269 15775.891999999994 -358.0Q15808.391999999994 -447 15808.391999999994 -558Q15808.391999999994 -668 15775.891999999994 -755.5Q15743.391999999994 -843 15678.891999999994 -894.0Q15614.391999999994 -945 15517.391999999994 -945Q15423.391999999994 -945 15358.391999999994 -896.5Q15293.391999999994 -848 15260.391999999994 -761.5Q15227.391999999994 -675 15227.391999999994 -558Q15227.391999999994 -442 15260.891999999994 -353.5Q15294.391999999994 -265 15359.391999999994 -215.0Q15424.391999999994 -165 15517.391999999994 -165ZM16428.103999999992 15Q16366.103999999994 15 16323.103999999994 -28.0Q16280.103999999994 -71 16280.103999999994 -132Q16280.103999999994 -194 16323.103999999994 -236.5Q16366.103999999994 -279 16428.103999999992 -279Q16489.103999999992 -279 16532.103999999992 -236.5Q16575.103999999992 -194 16575.103999999992 -132Q16575.103999999992 -71 16532.103999999992 -28.0Q16489.103999999992 15 16428.103999999992 15ZM16873.815999999995 0V-1118H17093.815999999995V0ZM16984.815999999995 -1289Q16927.815999999995 -1289 16887.315999999995 -1327.0Q16846.815999999995 -1365 16846.815999999995 -1419Q16846.815999999995 -1474 16887.315999999995 -1512.0Q16927.815999999995 -1550 16984.815999999995 -1550Q17041.815999999995 -1550 17082.815999999995 -1512.0Q17123.815999999995 -1474 17123.815999999995 -1419Q17123.815999999995 -1365 17082.815999999995 -1327.0Q17041.815999999995 -1289 16984.815999999995 -1289ZM17847.527999999995 23Q17690.527999999995 23 17573.027999999995 -49.0Q17455.527999999995 -121 17390.527999999995 -251.0Q17325.527999999995 -381 17325.527999999995 -553Q17325.527999999995 -727 17390.527999999995 -857.5Q17455.527999999995 -988 17573.027999999995 -1060.0Q17690.527999999995 -1132 17847.527999999995 -1132Q18005.527999999995 -1132 18123.027999999995 -1060.0Q18240.527999999995 -988 18305.527999999995 -857.5Q18370.527999999995 -727 18370.527999999995 -553Q18370.527999999995 -381 18305.527999999995 -251.0Q18240.527999999995 -121 18123.027999999995 -49.0Q18005.527999999995 23 17847.527999999995 23ZM17847.527999999995 -163Q17949.527999999995 -163 18016.027999999995 -216.5Q18082.527999999995 -270 18115.027999999995 -358.5Q18147.527999999995 -447 18147.527999999995 -553Q18147.527999999995 -660 18115.027999999995 -749.5Q18082.527999999995 -839 18016.027999999995 -892.5Q17949.527999999995 -946 17847.527999999995 -946Q17746.527999999995 -946 17680.527999999995 -892.5Q17614.527999999995 -839 17582.027999999995 -750.0Q17549.527999999995 -661 17549.527999999995 -553Q17549.527999999995 -447 17582.027999999995 -358.5Q17614.527999999995 -270 17680.527999999995 -216.5Q17746.527999999995 -163 17847.527999999995 -163Z"/></g>
  <rect x="88" y="586" width="64" height="4" fill="#FF5C8D"/>
</svg>
